<?xml version="1.0" encoding="UTF-8"?>
<svg width="245px" height="104px" viewBox="0 0 245 104" version="1.1" xmlns="http://www.w3.org/2000/svg" xmlns:xlink="http://www.w3.org/1999/xlink">
    <g id="Page-1" stroke="none" stroke-width="1" fill="none" fill-rule="evenodd">
        <g id="Made-for-Matrix-—-Preferred" fill="#000000" fill-rule="nonzero">
            <polygon id="Shape" points="2.76012658 2.37626113 2.76012658 101.562018 9.92405063 101.562018 9.92405063 103.938279 0 103.938279 0 0 9.92405063 0 9.92405063 2.37626113"></polygon>
            <path d="M30.3924051,42.9210682 L30.3924051,47.9513353 L30.5474684,47.9513353 C31.8810127,46.0379822 33.5246835,44.5566766 35.4164557,43.5074184 C37.3082278,42.4581602 39.4791139,41.9335312 41.9291139,41.9335312 C44.2860759,41.9335312 46.4259494,42.3964392 48.3797468,43.2913947 C50.3335443,44.1863501 51.7911392,45.7910979 52.814557,48.105638 C53.9310127,46.4700297 55.4196203,45.0504451 57.3113924,43.8160237 C59.2031646,42.5816024 61.4670886,41.9643917 64.0411392,41.9643917 C66.0259494,41.9643917 67.8246835,42.211276 69.5303797,42.674184 C71.2050633,43.137092 72.6626582,43.9086053 73.8411392,44.9578635 C75.0506329,46.0071217 75.9810127,47.3958457 76.6632911,49.0931751 C77.3455696,50.7905045 77.6867089,52.8272997 77.6867089,55.2344214 L77.6867089,80.0462908 L67.4525316,80.0462908 L67.4525316,59.0302671 C67.4525316,57.7958457 67.3905063,56.6231454 67.2974684,55.5121662 C67.2044304,54.4011869 66.9253165,53.4445104 66.4911392,52.6421365 C66.056962,51.8397626 65.4367089,51.1916914 64.5683544,50.6979228 C63.7310127,50.2350148 62.5835443,49.9881306 61.156962,49.9881306 C59.7303797,49.9881306 58.5518987,50.2658754 57.6525316,50.821365 C56.7531646,51.3768546 56.0708861,52.0866469 55.5746835,52.9816024 C55.078481,53.8765579 54.7373418,54.864095 54.5512658,56.0059347 C54.3962025,57.1169139 54.3031646,58.2587537 54.3031646,59.4005935 L54.3031646,80.0462908 L44.0689873,80.0462908 L44.0689873,59.2462908 C44.0689873,58.1353116 44.0379747,57.0551929 44.006962,55.9750742 C43.9449367,54.8949555 43.7588608,53.9074184 43.3867089,53.0124629 C43.014557,52.1175074 42.4253165,51.3768546 41.5879747,50.821365 C40.7506329,50.2658754 39.5101266,49.9881306 37.8664557,49.9881306 C37.3702532,49.9881306 36.75,50.0807122 35.9436709,50.2967359 C35.1373418,50.5127596 34.393038,50.9139466 33.6487342,51.5002967 C32.9044304,52.0866469 32.2531646,52.9507418 31.7259494,54.0925816 C31.1987342,55.2035608 30.9196203,56.6848665 30.9196203,58.505638 L30.9196203,80.0154303 L20.685443,80.0154303 L20.685443,42.9210682 L30.3924051,42.9210682 Z" id="Shape"></path>
            <path d="M84.1993671,48.3833828 C85.2537975,46.8094955 86.5873418,45.5442136 88.2310127,44.5875371 C89.8746835,43.6308605 91.7044304,42.9519288 93.7512658,42.5507418 C95.7981013,42.1495549 97.8449367,41.9335312 99.9227848,41.9335312 C101.783544,41.9335312 103.706329,42.0569733 105.629114,42.3347181 C107.551899,42.6124629 109.31962,43.1062315 110.901266,43.8777448 C112.482911,44.6492582 113.785443,45.6985163 114.777848,47.0563798 C115.801266,48.4142433 116.297468,50.2350148 116.297468,52.4569733 L116.297468,71.7448071 C116.297468,73.411276 116.390506,75.0160237 116.576582,76.5590504 C116.762658,78.1020772 117.103797,79.2439169 117.6,80.0154303 L107.210759,80.0154303 C107.024684,79.4290801 106.86962,78.84273 106.74557,78.2563798 C106.621519,77.6700297 106.528481,77.052819 106.497468,76.4356083 C104.853797,78.1020772 102.931013,79.2747774 100.729114,79.9537092 C98.5272152,80.6326409 96.2632911,80.9721068 93.9683544,80.9721068 C92.2006329,80.9721068 90.5259494,80.7560831 89.0063291,80.3240356 C87.4556962,79.8919881 86.1221519,79.2130564 84.9746835,78.3181009 C83.8272152,77.4231454 82.9278481,76.2504451 82.2765823,74.8925816 C81.6253165,73.5347181 81.3151899,71.8682493 81.3151899,69.9548961 C81.3151899,67.8563798 81.6873418,66.1281899 82.4316456,64.7703264 C83.1759494,63.4124629 84.1373418,62.3323442 85.3158228,61.4991098 C86.4943038,60.6967359 87.8278481,60.0795252 89.3474684,59.6783383 C90.8670886,59.2771513 92.3867089,58.9376855 93.9373418,58.7216617 C95.4879747,58.4747774 96.9765823,58.2896142 98.4651899,58.1353116 C99.9537975,57.9810089 101.287342,57.7649852 102.43481,57.4872404 C103.582278,57.2094955 104.512658,56.7774481 105.163924,56.2219585 C105.846203,55.6664688 106.156329,54.864095 106.094304,53.8148368 C106.094304,52.7038576 105.908228,51.8397626 105.567089,51.1916914 C105.194937,50.5436202 104.729747,50.0498516 104.140506,49.6795252 C103.551266,49.3091988 102.837975,49.0931751 102.062658,48.9697329 C101.256329,48.8462908 100.418987,48.7845697 99.5196203,48.7845697 C97.5037975,48.7845697 95.9221519,49.2166172 94.7746835,50.0807122 C93.6272152,50.9448071 92.9449367,52.3643917 92.7588608,54.3703264 L82.5246835,54.3703264 C82.5556962,51.9323442 83.1449367,49.95727 84.1993671,48.3833828 Z M104.41962,62.7335312 C103.768354,62.9495549 103.086076,63.1347181 102.341772,63.2581602 C101.597468,63.4124629 100.822152,63.535905 99.9848101,63.6284866 C99.178481,63.7210682 98.3411392,63.8445104 97.5348101,63.9988131 C96.7594937,64.1531157 96.0151899,64.3382789 95.2708861,64.5851632 C94.5265823,64.8320475 93.8753165,65.1406528 93.3170886,65.5418398 C92.7588608,65.9430267 92.3246835,66.4676558 91.9835443,67.0848665 C91.6424051,67.7020772 91.4873418,68.504451 91.4873418,69.4611276 C91.4873418,70.3560831 91.6424051,71.1275964 91.9835443,71.7448071 C92.3246835,72.3620178 92.7898734,72.8557864 93.3481013,73.2261128 C93.9063291,73.5964392 94.5886076,73.8433234 95.3639241,73.9667656 C96.1392405,74.1210682 96.914557,74.1827893 97.7518987,74.1827893 C99.7677215,74.1827893 101.318354,73.8433234 102.43481,73.1643917 C103.551266,72.4854599 104.357595,71.6830861 104.88481,70.75727 C105.412025,69.831454 105.722152,68.8747774 105.846203,67.9181009 C105.970253,66.9614243 106.032278,66.189911 106.032278,65.6344214 L106.032278,61.8385757 C105.598101,62.2397626 105.070886,62.5175074 104.41962,62.7335312 Z" id="Shape"></path>
            <path d="M143.216456,42.9210682 L143.216456,49.7412463 L135.711392,49.7412463 L135.711392,68.1032641 C135.711392,69.831454 135.990506,70.9732938 136.579747,71.5287834 C137.168987,72.1151335 138.316456,72.3928783 140.053165,72.3928783 C140.642405,72.3928783 141.16962,72.3620178 141.696835,72.3311573 C142.224051,72.2694362 142.720253,72.2077151 143.216456,72.1151335 L143.216456,80.0154303 C142.348101,80.1697329 141.386709,80.2623145 140.332278,80.2931751 C139.277848,80.3240356 138.25443,80.3548961 137.231013,80.3548961 C135.649367,80.3548961 134.129747,80.231454 132.734177,80.0462908 C131.307595,79.8302671 130.067089,79.4290801 128.981646,78.7810089 C127.896203,78.1637982 127.058861,77.2688427 126.438608,76.127003 C125.818354,74.9851632 125.508228,73.472997 125.508228,71.621365 L125.508228,49.7412463 L119.305696,49.7412463 L119.305696,42.9210682 L125.508228,42.9210682 L125.508228,31.811276 L135.742405,31.811276 L135.742405,42.9210682 L143.216456,42.9210682 Z" id="Shape"></path>
            <path d="M157.85443,42.9210682 L157.85443,49.8029674 L158.009494,49.8029674 C158.474684,48.6611276 159.125949,47.5810089 159.963291,46.6243323 C160.76962,45.6367953 161.731013,44.8035608 162.785443,44.1246291 C163.839873,43.4456973 164.956329,42.8902077 166.165823,42.5198813 C167.375316,42.1495549 168.615823,41.9335312 169.918354,41.9335312 C170.600633,41.9335312 171.344937,42.0569733 172.151266,42.3038576 L172.151266,51.7780415 C171.655063,51.6854599 171.096835,51.5928783 170.414557,51.5311573 C169.732278,51.4694362 169.081013,51.4077151 168.460759,51.4077151 C166.6,51.4077151 164.987342,51.7163205 163.715823,52.3335312 C162.413291,52.9507418 161.389873,53.8148368 160.583544,54.864095 C159.777215,55.9442136 159.218987,57.2094955 158.877848,58.6290801 C158.536709,60.0486647 158.381646,61.6225519 158.381646,63.2890208 L158.381646,79.9845697 L148.147468,79.9845697 L148.147468,42.9210682 L157.85443,42.9210682 Z" id="Shape"></path>
            <path d="M176.431013,37.1810089 L176.431013,28.7869436 L186.66519,28.7869436 L186.66519,37.1810089 L176.431013,37.1810089 Z M186.66519,42.9210682 L186.66519,79.9845697 L176.431013,79.9845697 L176.431013,42.9210682 L186.66519,42.9210682 Z" id="Shape"></path>
            <polygon id="Shape" points="191.999367 42.9210682 203.660127 42.9210682 210.203797 52.611276 216.685443 42.9210682 228.005063 42.9210682 215.755063 60.2646884 229.524684 79.9845697 217.863924 79.9845697 210.079747 68.2884273 202.29557 79.9845697 190.851899 79.9845697 204.249367 60.4807122"></polygon>
            <polygon id="Shape" points="242.022785 101.562018 242.022785 2.37626113 234.858861 2.37626113 234.858861 0 244.782911 0 244.782911 103.938279 234.858861 103.938279 234.858861 101.562018"></polygon>
            <g id="Group" transform="translate(20.778481, 14.973294)">
                <path d="M2.66708861,3.8884273 L2.66708861,5.21543027 L2.69810127,5.21543027 C3.07025316,4.69080119 3.50443038,4.32047478 4.00063291,4.04272997 C4.49683544,3.76498516 5.08607595,3.61068249 5.73734177,3.61068249 C6.35759494,3.61068249 6.94683544,3.73412463 7.47405063,3.9810089 C8.00126582,4.22789318 8.37341772,4.65994065 8.65253165,5.27715134 C8.96265823,4.84510386 9.33481013,4.47477745 9.86202532,4.13531157 C10.3582278,3.7958457 10.978481,3.64154303 11.6607595,3.64154303 C12.1879747,3.64154303 12.6841772,3.70326409 13.1183544,3.82670623 C13.5525316,3.95014837 13.9556962,4.16617211 14.2658228,4.44391691 C14.5759494,4.72166172 14.8240506,5.09198813 15.0101266,5.55489614 C15.1962025,6.01780415 15.2892405,6.54243323 15.2892405,7.19050445 L15.2892405,13.8255193 L12.5601266,13.8255193 L12.5601266,8.17804154 C12.5601266,7.83857567 12.5601266,7.52997033 12.5291139,7.25222552 C12.4981013,6.94362018 12.4360759,6.69673591 12.3120253,6.48071217 C12.1879747,6.26468843 12.0329114,6.07952522 11.8158228,5.95608309 C11.5987342,5.83264095 11.2886076,5.77091988 10.9164557,5.77091988 C10.5443038,5.77091988 10.2341772,5.83264095 9.98607595,5.98694362 C9.73797468,6.14124629 9.55189873,6.3264095 9.4278481,6.57329377 C9.30379747,6.82017804 9.21075949,7.06706231 9.14873418,7.37566766 C9.11772152,7.684273 9.08670886,7.99287834 9.08670886,8.27062315 L9.08670886,13.7946588 L6.35759494,13.7946588 L6.35759494,8.23976261 C6.35759494,7.93115727 6.35759494,7.65341246 6.32658228,7.37566766 C6.32658228,7.09792285 6.26455696,6.82017804 6.17151899,6.57329377 C6.07848101,6.3264095 5.92341772,6.14124629 5.67531646,5.98694362 C5.45822785,5.83264095 5.11708861,5.77091988 4.68291139,5.77091988 C4.55886076,5.77091988 4.37278481,5.80178042 4.18670886,5.86350148 C3.96962025,5.92522255 3.7835443,6.01780415 3.5664557,6.20296736 C3.38037975,6.35727003 3.1943038,6.6041543 3.07025316,6.88189911 C2.91518987,7.19050445 2.85316456,7.56083086 2.85316456,8.05459941 L2.85316456,13.7946588 L0.124050633,13.7946588 L0.124050633,3.8884273 L2.66708861,3.8884273 Z" id="Shape"></path>
                <path d="M17.3360759,6.94362018 C17.3670886,6.29554896 17.5221519,5.77091988 17.8322785,5.36973294 C18.1113924,4.93768546 18.4835443,4.59821958 18.9177215,4.35133531 C19.3518987,4.10445104 19.8481013,3.91928783 20.3753165,3.7958457 C20.9335443,3.67240356 21.4607595,3.64154303 22.0189873,3.64154303 C22.5151899,3.64154303 23.0113924,3.67240356 23.5386076,3.73412463 C24.0658228,3.7958457 24.5310127,3.95014837 24.9341772,4.13531157 C25.3683544,4.35133531 25.7094937,4.62908012 25.9886076,4.99940653 C26.2677215,5.36973294 26.3917722,5.83264095 26.3917722,6.44985163 L26.3917722,11.6035608 C26.3917722,12.0356083 26.4227848,12.4676558 26.4537975,12.8997033 C26.5158228,13.3008902 26.6088608,13.6094955 26.7329114,13.8255193 L23.9727848,13.8255193 C23.9107595,13.6712166 23.8797468,13.5169139 23.8487342,13.3626113 C23.8177215,13.2083086 23.7867089,13.0540059 23.7867089,12.8688427 C23.3525316,13.3008902 22.8253165,13.6403561 22.2360759,13.7946588 C21.6468354,13.979822 21.0575949,14.0724036 20.4373418,14.0724036 C19.9721519,14.0724036 19.506962,14.0106825 19.1037975,13.8872404 C18.7006329,13.7637982 18.328481,13.578635 18.0183544,13.3626113 C17.7082278,13.115727 17.4601266,12.8071217 17.3050633,12.4367953 C17.1189873,12.0664688 17.056962,11.6344214 17.056962,11.1097923 C17.056962,10.5543027 17.15,10.0913947 17.3670886,9.72106825 C17.5531646,9.35074184 17.8322785,9.07299703 18.1424051,8.85697329 C18.4525316,8.64094955 18.8246835,8.48664688 19.2278481,8.36320475 C19.6310127,8.23976261 20.0341772,8.17804154 20.4373418,8.11632047 C20.8405063,8.05459941 21.2436709,7.99287834 21.6468354,7.9620178 C22.05,7.93115727 22.3911392,7.8694362 22.7012658,7.7768546 C23.0113924,7.71513353 23.2594937,7.59169139 23.4455696,7.43738872 C23.6316456,7.28308605 23.6936709,7.06706231 23.6936709,6.78931751 C23.6936709,6.48071217 23.6316456,6.26468843 23.5386076,6.07952522 C23.4455696,5.89436202 23.321519,5.77091988 23.1664557,5.67833828 C23.0113924,5.58575668 22.8253165,5.52403561 22.6082278,5.49317507 C22.3911392,5.46231454 22.1740506,5.43145401 21.9259494,5.43145401 C21.3987342,5.43145401 20.964557,5.55489614 20.6544304,5.77091988 C20.3443038,5.98694362 20.1582278,6.38813056 20.1272152,6.91275964 L17.3360759,6.91275964 L17.3360759,6.94362018 Z M23.6316456,8.9495549 C23.5075949,9.0421365 23.3835443,9.1347181 23.1974684,9.19643917 C23.0113924,9.25816024 22.8253165,9.28902077 22.6392405,9.35074184 C22.4531646,9.38160237 22.2360759,9.41246291 22.0189873,9.44332344 C21.8018987,9.47418398 21.5848101,9.50504451 21.3677215,9.53590504 C21.1506329,9.56676558 20.964557,9.62848665 20.7474684,9.69020772 C20.5613924,9.75192878 20.3753165,9.84451039 20.2202532,9.93709199 C20.0651899,10.0605341 19.9411392,10.1839763 19.8791139,10.3382789 C19.7860759,10.4925816 19.7550633,10.7086053 19.7550633,10.9554896 C19.7550633,11.2023739 19.7860759,11.3875371 19.8791139,11.5727003 C19.9721519,11.727003 20.0962025,11.8813056 20.2512658,11.9738872 C20.4063291,12.0664688 20.5924051,12.1281899 20.778481,12.189911 C20.9955696,12.2207715 21.1816456,12.251632 21.3987342,12.251632 C21.9259494,12.251632 22.3601266,12.1590504 22.6392405,11.9738872 C22.9493671,11.788724 23.1664557,11.5727003 23.2905063,11.325816 C23.4455696,11.0789318 23.5075949,10.8320475 23.5386076,10.5543027 C23.5696203,10.3074184 23.6006329,10.0913947 23.6006329,9.93709199 L23.6006329,8.9495549 L23.6316456,8.9495549 Z" id="Shape"></path>
                <path d="M35.5405063,12.5293769 C35.2303797,13.0540059 34.7962025,13.4551929 34.2689873,13.7020772 C33.7417722,13.9489614 33.1525316,14.041543 32.5012658,14.041543 C31.756962,14.041543 31.1056962,13.8872404 30.5474684,13.6094955 C29.9892405,13.3317507 29.5240506,12.9305638 29.1518987,12.4367953 C28.7797468,11.9430267 28.5006329,11.3875371 28.314557,10.7394659 C28.128481,10.0913947 28.035443,9.44332344 28.035443,8.73353116 C28.035443,8.08545994 28.128481,7.43738872 28.314557,6.82017804 C28.5006329,6.20296736 28.7797468,5.64747774 29.1518987,5.18456973 C29.5240506,4.72166172 29.9892405,4.32047478 30.5164557,4.04272997 C31.0746835,3.76498516 31.6949367,3.61068249 32.4392405,3.61068249 C33.028481,3.61068249 33.5867089,3.73412463 34.1139241,3.9810089 C34.6411392,4.22789318 35.0753165,4.59821958 35.385443,5.09198813 L35.4164557,5.09198813 L35.4164557,0.123442136 L38.1455696,0.123442136 L38.1455696,13.7946588 L35.5405063,13.7946588 L35.5405063,12.5293769 Z M35.4474684,7.62255193 C35.385443,7.25222552 35.2303797,6.91275964 35.0443038,6.63501484 C34.8582278,6.35727003 34.6101266,6.11038576 34.3310127,5.92522255 C34.0208861,5.74005935 33.6487342,5.64747774 33.214557,5.64747774 C32.7803797,5.64747774 32.3772152,5.74005935 32.0670886,5.92522255 C31.756962,6.11038576 31.5088608,6.3264095 31.3227848,6.63501484 C31.1367089,6.94362018 31.0126582,7.25222552 30.9196203,7.65341246 C30.8265823,8.02373887 30.7955696,8.42492582 30.7955696,8.82611276 C30.7955696,9.19643917 30.8265823,9.59762611 30.9196203,9.96795252 C31.0126582,10.3382789 31.1677215,10.6777448 31.3537975,10.9863501 C31.5398734,11.2949555 31.7879747,11.5418398 32.0981013,11.727003 C32.4082278,11.9121662 32.7493671,12.0047478 33.1835443,12.0047478 C33.6177215,12.0047478 34.0208861,11.9121662 34.3,11.727003 C34.6101266,11.5418398 34.8272152,11.2949555 35.0132911,11.0172107 C35.1993671,10.7086053 35.3234177,10.3691395 35.385443,9.99881306 C35.4474684,9.62848665 35.5094937,9.2272997 35.5094937,8.82611276 C35.5405063,8.39406528 35.5094937,7.99287834 35.4474684,7.62255193 Z" id="Shape"></path>
                <path d="M43.1696203,11.4183976 C43.5727848,11.8195846 44.1620253,12.0047478 44.9373418,12.0047478 C45.4955696,12.0047478 45.9607595,11.8813056 46.3639241,11.6035608 C46.7670886,11.325816 47.0151899,11.0480712 47.1082278,10.7394659 L49.5272152,10.7394659 C49.1550633,11.9121662 48.5658228,12.7762611 47.7594937,13.3008902 C46.9531646,13.8255193 45.9917722,14.0724036 44.8753165,14.0724036 C44.1,14.0724036 43.3867089,13.9489614 42.7664557,13.7020772 C42.1462025,13.4551929 41.6189873,13.0848665 41.1848101,12.652819 C40.7506329,12.189911 40.4094937,11.6344214 40.1613924,11.0172107 C39.9132911,10.3691395 39.8202532,9.69020772 39.8202532,8.91869436 C39.8202532,8.17804154 39.9443038,7.49910979 40.1924051,6.85103858 C40.4405063,6.20296736 40.7816456,5.64747774 41.2468354,5.18456973 C41.6810127,4.72166172 42.2392405,4.35133531 42.8594937,4.0735905 C43.4797468,3.7958457 44.1620253,3.67240356 44.9373418,3.67240356 C45.7746835,3.67240356 46.5189873,3.82670623 47.1392405,4.16617211 C47.7594937,4.50563798 48.2867089,4.93768546 48.6898734,5.49317507 C49.093038,6.04866469 49.3721519,6.66587537 49.5582278,7.37566766 C49.7443038,8.08545994 49.8063291,8.82611276 49.7443038,9.56676558 L42.4873418,9.56676558 C42.5493671,10.3691395 42.7664557,11.0172107 43.1696203,11.4183976 Z M46.2708861,6.20296736 C45.9297468,5.83264095 45.4335443,5.67833828 44.7822785,5.67833828 C44.3481013,5.67833828 43.9759494,5.74005935 43.6968354,5.89436202 C43.4177215,6.04866469 43.1696203,6.23382789 43.014557,6.44985163 C42.828481,6.66587537 42.7044304,6.88189911 42.6424051,7.12878338 C42.5803797,7.37566766 42.5183544,7.59169139 42.5183544,7.7768546 L46.9531646,7.7768546 C46.8291139,7.06706231 46.5810127,6.57329377 46.2708861,6.20296736 Z" id="Shape"></path>
                <path d="M55.6056962,5.70919881 L55.6056962,3.8884273 L57.2493671,3.8884273 L57.2493671,3.11691395 C57.2493671,2.22195846 57.528481,1.51216617 58.0867089,0.956676558 C58.6449367,0.401186944 59.4822785,0.123442136 60.5987342,0.123442136 C60.8468354,0.123442136 61.0949367,0.123442136 61.343038,0.154302671 C61.5911392,0.185163205 61.8392405,0.185163205 62.0563291,0.216023739 L62.0563291,2.25281899 C61.7462025,2.22195846 61.4050633,2.19109792 61.0639241,2.19109792 C60.6917722,2.19109792 60.4126582,2.28367953 60.2575949,2.4379822 C60.1025316,2.6231454 60.0094937,2.90089021 60.0094937,3.30207715 L60.0094937,3.8884273 L61.9012658,3.8884273 L61.9012658,5.70919881 L60.0094937,5.70919881 L60.0094937,13.7946588 L57.2803797,13.7946588 L57.2803797,5.70919881 L55.6056962,5.70919881 Z" id="Shape"></path>
                <path d="M63.1107595,6.69673591 C63.3588608,6.04866469 63.7,5.49317507 64.1651899,5.0611276 C64.5993671,4.59821958 65.1575949,4.25875371 65.7778481,4.01186944 C66.3981013,3.76498516 67.1113924,3.64154303 67.8867089,3.64154303 C68.6620253,3.64154303 69.3753165,3.76498516 70.0265823,4.01186944 C70.6468354,4.25875371 71.2050633,4.59821958 71.6392405,5.0611276 C72.0734177,5.52403561 72.4455696,6.04866469 72.6936709,6.69673591 C72.9417722,7.34480712 73.0658228,8.05459941 73.0658228,8.85697329 C73.0658228,9.65934718 72.9417722,10.3691395 72.6936709,10.9863501 C72.4455696,11.6344214 72.1044304,12.1590504 71.6392405,12.6219585 C71.2050633,13.0848665 70.6468354,13.4243323 70.0265823,13.6712166 C69.4063291,13.9181009 68.693038,14.041543 67.8867089,14.041543 C67.1113924,14.041543 66.3981013,13.9181009 65.7778481,13.6712166 C65.1575949,13.4243323 64.5993671,13.0848665 64.1651899,12.6219585 C63.7310127,12.1590504 63.3588608,11.6344214 63.1107595,10.9863501 C62.8626582,10.3382789 62.7386076,9.62848665 62.7386076,8.85697329 C62.7386076,8.05459941 62.8626582,7.34480712 63.1107595,6.69673591 Z M65.5917722,9.99881306 C65.6537975,10.3691395 65.8088608,10.7086053 65.9949367,11.0172107 C66.1810127,11.325816 66.4291139,11.5418398 66.7392405,11.727003 C67.0493671,11.9121662 67.421519,12.0047478 67.8867089,12.0047478 C68.3518987,12.0047478 68.7240506,11.9121662 69.0651899,11.727003 C69.3753165,11.5418398 69.6234177,11.2949555 69.8094937,11.0172107 C69.9955696,10.7086053 70.1196203,10.3691395 70.2126582,9.99881306 C70.2746835,9.62848665 70.3367089,9.2272997 70.3367089,8.82611276 C70.3367089,8.42492582 70.3056962,8.05459941 70.2126582,7.65341246 C70.1506329,7.28308605 69.9955696,6.94362018 69.8094937,6.63501484 C69.6234177,6.3264095 69.3753165,6.11038576 69.0651899,5.92522255 C68.7550633,5.74005935 68.3518987,5.64747774 67.8867089,5.64747774 C67.421519,5.64747774 67.0493671,5.74005935 66.7392405,5.92522255 C66.4291139,6.11038576 66.1810127,6.35727003 65.9949367,6.63501484 C65.8088608,6.94362018 65.6848101,7.25222552 65.5917722,7.65341246 C65.5297468,8.02373887 65.4677215,8.42492582 65.4677215,8.82611276 C65.4677215,9.2272997 65.4987342,9.62848665 65.5917722,9.99881306 Z" id="Shape"></path>
                <path d="M77.4075949,3.8884273 L77.4075949,5.74005935 L77.4386076,5.74005935 C77.5626582,5.43145401 77.7487342,5.1537092 77.9658228,4.87596439 C78.1829114,4.62908012 78.4310127,4.38219585 78.7101266,4.19703264 C78.9892405,4.01186944 79.2993671,3.85756677 79.6094937,3.76498516 C79.9196203,3.67240356 80.2607595,3.61068249 80.6018987,3.61068249 C80.7879747,3.61068249 80.9740506,3.64154303 81.1911392,3.70326409 L81.1911392,6.23382789 C81.0670886,6.20296736 80.9120253,6.17210682 80.7259494,6.17210682 C80.5398734,6.14124629 80.3848101,6.14124629 80.1987342,6.14124629 C79.7025316,6.14124629 79.2683544,6.23382789 78.9272152,6.38813056 C78.5860759,6.54243323 78.306962,6.78931751 78.0898734,7.06706231 C77.8727848,7.34480712 77.7177215,7.684273 77.6246835,8.08545994 C77.5316456,8.45578635 77.5006329,8.88783383 77.5006329,9.31988131 L77.5006329,13.7946588 L74.771519,13.7946588 L74.771519,3.8884273 L77.4075949,3.8884273 Z" id="Shape"></path>
            </g>
        </g>
    </g>
</svg>